<svg width="241" height="305" viewBox="0 0 241 305" fill="none" xmlns="http://www.w3.org/2000/svg">
<path d="M64.189 304.599C67.9301 306.183 71.8765 302.753 69.586 299.915C57.1535 284.506 45.3806 258.577 64.1377 225.184C95.4173 169.498 114.451 140.656 114.451 140.656C114.451 140.656 124.575 174.314 152.018 204.24C178.431 233.042 192.888 269.266 169.581 299.443C167.394 302.275 171.251 305.617 174.968 304.102C203.818 292.349 236.176 268.775 239.827 221.863C241.173 207.528 239.155 187.459 229.059 162.133C216.079 130.035 200.122 115.058 190.89 108.626C188.128 106.702 183.833 108.407 184.059 111.324C186.75 145.957 170.388 154.746 161.076 134.939C157.356 127.028 155.187 113.345 155.187 96.6817C155.187 68.9401 145.08 40.3827 122.798 17.1767C117.004 11.142 110.224 5.50295 102.445 0.69421C99.6284 -1.04708 95.5462 0.70318 95.8041 3.5349C97.515 22.3413 95.9649 76.2392 36.5866 140.63C-17.2519 200.36 3.61041 246.232 11.0132 258.656C25.1667 282.458 44.9088 296.436 64.189 304.599Z" fill="#3E3E3E"/>
</svg>
